<?xml version="1.0" encoding="UTF-8"?>
<svg width="280px" height="280px" viewBox="0 0 280 280" version="1.1" xmlns="http://www.w3.org/2000/svg" xmlns:xlink="http://www.w3.org/1999/xlink">
    <title>yellow_grey@3x</title>
    <g id="yellow_grey" stroke="none" stroke-width="1" fill="none" fill-rule="evenodd">
        <rect fill="#484848" x="0" y="0" width="280" height="280"></rect>
        <g id="YellowA-Copy" transform="translate(10.000000, 10.000000)">
            <path d="M95.897514,222 L105.686214,191.673229 L153.331772,191.673229 L163.102486,222 L193,222 L147.509386,89 L111.555048,89 L66,222 L95.897514,222 Z M146.261388,169.723352 L112.771114,169.723352 L129.016743,119.392578 L130.047692,119.392578 L146.261388,169.723352 Z" id="A" fill="#FBD901" fill-rule="nonzero"></path>
            <path d="M123.442177,140 C131.326531,128.527344 137.39059,115.969727 141.634354,102.327148 C145.878118,88.6845703 148,73.7421875 148,57.5 C148,41.2578125 145.878118,26.3154297 141.634354,12.6728516 C137.39059,-0.969726563 131.326531,-13.5273438 123.442177,-25 L123.442177,-25 L110,-25 C114.136054,-19.328125 117.884354,-11.9804688 121.244898,-2.95703125 C124.605442,6.06640625 127.276644,15.8417969 129.258503,26.3691406 C131.240363,36.8964844 132.231293,47.2734375 132.231293,57.5 C132.231293,65.1484375 131.660431,72.9365234 130.518707,80.8642578 C129.376984,88.7919922 127.793651,96.4619141 125.768707,103.874023 C123.743764,111.286133 121.384921,118.09668 118.692177,124.305664 C115.999433,130.514648 113.102041,135.746094 110,140 L110,140 L123.442177,140 Z" id=")" fill="#FBD901" fill-rule="nonzero" transform="translate(129.000000, 57.500000) rotate(90.000000) translate(-129.000000, -57.500000) "></path>
            <rect id="Rectangle" stroke="#FBD901" stroke-width="12" x="6" y="6" width="248" height="248"></rect>
        </g>
    </g>
</svg>